<svg width="32" height="32" viewBox="0 0 32 32" fill="none" xmlns="http://www.w3.org/2000/svg">
<circle cx="16" cy="16" r="15" fill="#959595" fill-opacity="0.8"/>
<path d="M20.4048 18.5C19.4796 18.5 18.6293 18.8054 17.958 19.3162L13.764 16.8141C13.8882 16.2778 13.8882 15.7221 13.764 15.1859L17.958 12.6838C18.6293 13.1946 19.4796 13.5 20.4048 13.5C22.5744 13.5 24.3333 11.8211 24.3333 9.75C24.3333 7.67895 22.5744 6 20.4048 6C18.2351 6 16.4762 7.67895 16.4762 9.75C16.4762 10.0296 16.5085 10.302 16.5693 10.5641L12.3753 13.0662C11.7041 12.5554 10.8538 12.25 9.92857 12.25C7.7589 12.25 6 13.9289 6 16C6 18.0711 7.7589 19.75 9.92857 19.75C10.8538 19.75 11.7041 19.4446 12.3753 18.9338L16.5693 21.4359C16.5073 21.7032 16.4761 21.9762 16.4762 22.25C16.4762 24.3211 18.2351 26 20.4048 26C22.5744 26 24.3333 24.3211 24.3333 22.25C24.3333 20.1789 22.5744 18.5 20.4048 18.5Z" fill="white"/>
</svg>
